<?xml version="1.0" standalone="no"?>
<!DOCTYPE svg PUBLIC "-//W3C//DTD SVG 20010904//EN"
 "http://www.w3.org/TR/2001/REC-SVG-20010904/DTD/svg10.dtd">
<svg version="1.0" xmlns="http://www.w3.org/2000/svg"
 width="200.000000pt" height="200.000000pt" viewBox="0 0 200.000000 200.000000"
 preserveAspectRatio="xMidYMid meet">

<g transform="translate(0.000000,200.000000) scale(0.100000,-0.100000)"
fill="#000000" stroke="none">
<path d="M553 1765 c-55 -15 -114 -42 -148 -69 -26 -20 -18 -20 36 0 49 17
158 23 204 11 29 -8 29 -8 -26 -31 -80 -32 -233 -132 -275 -178 -46 -51 -94
-153 -93 -198 0 -31 1 -33 12 -16 19 31 89 106 108 116 15 9 15 5 -2 -51 -11
-33 -19 -77 -19 -97 l1 -37 14 38 c20 58 22 54 19 -30 l-3 -78 15 48 c8 26 19
45 23 42 5 -2 11 -42 14 -87 3 -46 12 -101 19 -123 l13 -40 5 74 c5 69 6 72
21 55 9 -11 22 -36 30 -56 11 -33 11 -39 -6 -58 -13 -14 -20 -40 -22 -78 -3
-48 1 -65 24 -107 24 -43 38 -55 99 -85 39 -19 89 -52 112 -72 22 -20 52 -44
66 -53 22 -15 26 -24 26 -70 0 -52 0 -52 -52 -86 -77 -50 -132 -77 -217 -105
-153 -52 -219 -84 -249 -122 -39 -51 -67 -99 -97 -165 l-25 -57 841 0 840 0
-31 59 c-73 136 -88 153 -185 201 -50 25 -118 54 -150 64 -88 28 -154 62 -185
96 -15 17 -35 30 -43 30 -9 0 -19 9 -22 21 -4 11 -9 18 -13 15 -9 -9 20 -56
30 -50 18 11 58 -38 58 -72 0 -41 -34 -149 -60 -192 -27 -43 -46 -49 -74 -23
-35 32 -79 119 -71 139 5 14 4 15 -6 5 -7 -7 -35 -13 -61 -13 -39 0 -48 -3
-48 -17 0 -24 -62 -123 -76 -123 -22 0 -102 119 -168 247 -16 31 -16 32 14 53
22 16 34 19 43 12 10 -8 13 4 16 56 1 36 4 69 6 73 3 3 -18 20 -44 38 -27 17
-63 47 -80 66 -17 19 -34 35 -39 35 -21 0 -99 41 -119 62 -44 48 -65 140 -43
193 7 18 9 18 21 -10 8 -16 21 -30 29 -30 10 0 14 -9 13 -27 -1 -17 3 -25 10
-22 7 2 21 -9 32 -25 10 -16 26 -29 35 -29 8 0 26 -3 40 -7 14 -3 8 2 -12 11
-30 13 -40 24 -48 55 -6 21 -13 39 -16 39 -4 0 -4 -7 0 -15 3 -8 1 -15 -4 -15
-6 0 -11 5 -11 10 -1 6 -2 14 -3 19 0 6 -7 16 -13 22 -20 20 -16 41 7 34 18
-6 19 -5 5 22 -8 15 -15 37 -15 48 0 17 3 16 25 -10 l24 -30 1 42 c0 53 12 60
112 69 l76 7 13 -28 c8 -16 20 -31 27 -33 11 -3 12 0 3 16 -15 28 -14 32 8 32
21 0 56 -38 67 -72 3 -11 0 -31 -7 -44 -10 -19 -10 -27 -1 -36 18 -18 15 -25
-30 -75 -34 -37 -37 -43 -15 -28 15 10 39 37 53 61 l26 44 65 0 65 0 -7 40
c-4 24 -3 40 3 40 5 0 12 13 15 29 7 34 63 64 77 41 11 -17 4 -30 -16 -30 -8
0 -14 -5 -14 -10 0 -6 11 -8 25 -4 21 5 25 3 25 -18 0 -13 4 -28 8 -33 5 -6
13 -22 20 -37 18 -42 -4 -34 -27 10 l-20 37 -1 -41 c0 -27 6 -46 18 -57 41
-38 112 -6 112 50 l0 27 -16 -22 c-18 -26 -36 -28 -54 -7 -16 20 2 65 25 65 9
0 13 5 10 10 -3 6 5 10 19 10 28 0 84 -43 96 -74 8 -19 9 -19 9 -2 1 10 -10
31 -24 47 -28 34 -24 65 5 49 25 -13 30 -13 30 5 0 33 19 12 35 -40 10 -30 22
-52 27 -49 5 3 6 -13 2 -37 -9 -52 -30 -96 -37 -77 -2 7 -12 -6 -22 -29 -9
-24 -23 -43 -31 -43 -8 0 -14 -4 -14 -10 0 -5 7 -6 17 -3 12 5 14 3 8 -8 -4
-8 8 4 28 26 20 22 41 59 48 82 8 26 22 46 36 52 13 6 23 15 23 21 0 5 9 10
20 10 22 0 40 -28 40 -62 0 -36 -57 -126 -90 -143 -17 -9 -30 -18 -30 -21 0
-3 15 3 33 13 36 21 97 115 97 150 0 32 -21 73 -38 73 -10 0 -12 7 -8 23 41
142 47 228 22 310 l-14 47 70 65 c39 36 68 65 65 65 -4 0 -31 -11 -62 -24 -30
-14 -55 -23 -55 -21 0 2 25 27 55 56 64 60 64 63 1 152 l-41 58 -51 -103 -51
-104 -54 49 c-109 97 -264 151 -449 153 -96 2 -126 6 -185 28 -80 29 -168 33
-252 11z m747 -514 c19 -59 26 -111 15 -99 -10 9 -42 112 -49 153 -9 56 9 28
34 -54z m-542 -13 c11 -53 8 -58 -24 -58 -13 0 -26 -4 -29 -10 -3 -5 -11 -10
-16 -10 -12 0 -2 60 19 113 12 32 17 36 27 25 7 -7 17 -34 23 -60z m-248 7
c-5 -22 -10 -58 -10 -80 0 -30 -3 -36 -10 -25 -14 22 -12 65 6 110 20 50 26
48 14 -5z m559 -66 c1 -31 -2 -71 -6 -90 -5 -28 -7 -30 -14 -14 -10 26 -11
189 -2 199 11 11 21 -31 22 -95z m-206 18 l37 -67 -29 15 c-37 19 -38 19 -46
80 -9 59 -9 59 38 -28z m531 -49 c-3 -4 -11 -5 -19 -1 -11 4 -15 20 -14 62 l1
56 18 -55 c10 -30 16 -58 14 -62z m-604 63 c5 -19 5 -31 -1 -31 -5 0 -9 6 -9
13 0 6 -3 23 -7 37 -9 36 6 19 17 -19z m440 -63 c0 -5 -9 -8 -19 -8 -23 0 -31
19 -31 68 l1 37 24 -45 c13 -25 24 -48 25 -52z m-63 -4 c-1 -1 -13 -5 -26 -9
-19 -6 -23 -4 -18 8 3 9 9 33 13 54 l8 38 13 -44 c7 -25 12 -45 10 -47z m-506
-1 c-21 -18 -22 -13 -8 37 l12 45 5 -35 c4 -24 2 -39 -9 -47z m127 21 c39 -11
24 -24 -28 -24 -27 0 -50 4 -50 9 0 18 38 25 78 15z m472 -55 c0 -5 -13 -9
-29 -9 -35 0 -50 27 -18 32 23 4 47 -8 47 -23z m80 10 c0 -6 -4 -7 -10 -4 -5
3 -10 11 -10 16 0 6 5 7 10 4 6 -3 10 -11 10 -16z m58 -12 c3 -16 1 -17 -17
-7 -25 13 -28 33 -4 28 10 -2 19 -11 21 -21z m-153 -27 c-27 -12 -35 -12 -35
0 0 6 12 10 28 9 24 0 25 -1 7 -9z m-265 -58 c-26 -4 -27 -4 -36 33 l-7 30 32
-30 c31 -28 31 -30 11 -33z m300 -77 c-13 -16 -70 -21 -70 -6 0 9 71 31 79 25
2 -2 -2 -10 -9 -19z"/>
<path d="M721 1264 c0 -11 3 -14 6 -6 3 7 2 16 -1 19 -3 4 -6 -2 -5 -13z"/>
<path d="M711 1224 c0 -11 3 -14 6 -6 3 7 2 16 -1 19 -3 4 -6 -2 -5 -13z"/>
<path d="M703 1090 c-42 -25 -82 -100 -53 -100 6 0 10 10 10 22 0 12 18 38 40
60 23 21 40 38 38 38 -2 0 -17 -9 -35 -20z"/>
<path d="M788 1103 c6 -2 18 -2 25 0 6 3 1 5 -13 5 -14 0 -19 -2 -12 -5z"/>
<path d="M752 1082 c-10 -7 -9 -17 3 -51 18 -51 18 -51 6 -51 -5 0 -15 16 -21
36 -7 19 -14 33 -16 31 -3 -2 0 -17 6 -32 6 -15 8 -30 5 -33 -2 -3 -9 6 -14
19 l-10 24 0 -27 c-1 -29 39 -68 69 -68 26 0 67 37 73 65 l4 26 -24 -23 c-19
-17 -28 -20 -41 -12 -9 6 -19 19 -20 28 -4 21 25 56 47 56 14 0 14 2 1 10 -18
12 -50 13 -68 2z m78 -109 c0 -12 -53 -33 -70 -28 -42 13 -16 30 48 30 12 0
22 -1 22 -2z"/>
<path d="M1447 971 c-4 -17 -3 -21 5 -13 5 5 8 16 6 23 -3 8 -7 3 -11 -10z"/>
<path d="M1506 927 c3 -10 9 -15 12 -12 3 3 0 11 -7 18 -10 9 -11 8 -5 -6z"/>
<path d="M1110 902 c12 -17 31 -37 43 -43 21 -10 21 -9 -1 10 -13 11 -32 30
-43 43 -19 21 -19 20 1 -10z"/>
<path d="M1474 849 c0 -13 3 -15 13 -7 7 6 13 12 13 13 0 2 -6 5 -13 8 -7 3
-13 -3 -13 -14z"/>
<path d="M980 835 c0 -17 5 -25 18 -24 10 0 12 3 5 6 -7 2 -13 12 -13 20 0 13
2 14 18 2 15 -13 16 -12 3 4 -19 24 -31 21 -31 -8z"/>
<path d="M1180 846 c0 -10 59 -36 77 -35 12 0 9 3 -8 8 -14 5 -35 14 -47 20
-12 6 -22 9 -22 7z"/>
<path d="M641 804 c0 -11 3 -14 6 -6 3 7 2 16 -1 19 -3 4 -6 -2 -5 -13z"/>
<path d="M1313 803 c9 -2 25 -2 35 0 9 3 1 5 -18 5 -19 0 -27 -2 -17 -5z"/>
<path d="M1417 743 c-4 -3 -15 -7 -25 -8 -10 0 -37 -22 -60 -47 -23 -25 -58
-56 -77 -69 -32 -22 -35 -28 -33 -69 l1 -45 4 43 c4 36 10 46 41 67 36 23 39
24 102 10 36 -7 66 -13 67 -12 1 2 -12 24 -28 51 -17 26 -29 49 -27 51 2 1 17
10 33 18 17 9 25 16 19 17 -6 0 -14 -3 -17 -7z"/>
</g>
</svg>
